<svg width="22.000000" height="22.000000" viewBox="0 0 22 22" fill="none" xmlns="http://www.w3.org/2000/svg" xmlns:xlink="http://www.w3.org/1999/xlink">
	<defs>
		<clipPath id="clip1_3903">
			<rect id="akar-icons:search" width="22.140581" height="22.140581" transform="translate(-0.583862 -0.513672)" fill="white" fill-opacity="0"/>
		</clipPath>
	</defs>
	<g opacity="0.700000">
		<rect id="akar-icons:search" width="22.140581" height="22.140581" transform="translate(-0.583862 -0.513672)" fill="#FFFFFF" fill-opacity="0"/>
		<g clip-path="url(#clip1_3903)">
			<path id="Vector" d="M14.65 14.71L18.78 18.85L14.65 14.71ZM14.64 14.71C13.17 16.18 11.18 17.01 9.1 17.01C7.02 17.01 5.02 16.18 3.55 14.71C2.08 13.24 1.26 11.25 1.26 9.17C1.26 7.09 2.08 5.09 3.55 3.62C5.02 2.15 7.02 1.33 9.1 1.33C11.18 1.33 13.17 2.15 14.64 3.62C16.11 5.09 16.94 7.09 16.94 9.17C16.94 11.25 16.11 13.24 14.64 14.71Z" stroke="#FFFFFF" stroke-opacity="1.000000" stroke-width="2.214058"/>
		</g>
	</g>
</svg>
